<?xml version="1.0" encoding="utf-8"?>
<!-- Generator: Adobe Illustrator 18.0.0, SVG Export Plug-In . SVG Version: 6.00 Build 0)  -->
<!DOCTYPE svg PUBLIC "-//W3C//DTD SVG 1.1//EN" "http://www.w3.org/Graphics/SVG/1.1/DTD/svg11.dtd">
<svg version="1.1" id="Ebene_1" xmlns="http://www.w3.org/2000/svg" xmlns:xlink="http://www.w3.org/1999/xlink" x="0px" y="0px"
	 viewBox="0 0 200 32.4" enable-background="new 0 0 200 32.4" xml:space="preserve">
<title>logo_horse24</title>
<g>
	<path fill="#222F39" d="M0,32.4V0h4.3v13.3h16.8V0h4.3v32.4h-4.3V17.2H4.3v15.3H0z"/>
	<path fill="#222F39" d="M66.8,32.4V0h14.2c2.8,0,5,0.3,6.5,0.9C88.9,1.5,90.1,2.5,91,4c0.9,1.5,1.4,3.2,1.3,4.9
		c0,2.3-0.7,4.2-2.2,5.8c-1.5,1.6-3.7,2.6-6.8,3c1.1,0.5,2,1.1,2.6,1.6c1.3,1.3,2.5,2.7,3.5,4.3l5.6,8.8h-5.3l-4.2-6.7
		c-1.2-1.9-2.3-3.4-3.1-4.5c-0.8-1-1.5-1.8-2.2-2.2c-0.6-0.4-1.2-0.7-1.9-0.9C77.8,18,77,18,75.9,18H71v14.4L66.8,32.4z M71.3,14.3
		h8.8c1.9,0,3.3-0.2,4.4-0.6c1-0.3,1.8-1,2.4-1.9c0.5-0.8,0.8-1.8,0.8-2.8c0-1.4-0.5-2.7-1.6-3.6C85,4.5,83.4,4,81.1,4h-9.7V14.3z"
		/>
	<path fill="#222F39" d="M96.9,21.8l3.9-0.3c0.2,1.6,0.6,2.9,1.3,3.9c0.7,1,1.7,1.8,3.2,2.4c1.5,0.6,3.2,1,4.8,0.9
		c1.4,0,2.8-0.2,4.2-0.7c1.2-0.5,2.1-1.1,2.7-1.9c0.6-0.8,0.9-1.7,0.9-2.7c0-0.9-0.3-1.8-0.9-2.6c-0.6-0.7-1.5-1.3-2.8-1.8
		c-0.8-0.3-2.7-0.8-5.6-1.5c-2.9-0.7-4.9-1.3-6.1-1.9c-1.5-0.8-2.6-1.8-3.3-2.9c-0.7-1.2-1.1-2.5-1.1-3.9c0-1.6,0.5-3.1,1.3-4.4
		c0.9-1.4,2.2-2.4,3.9-3.1c1.8-0.7,3.8-1.1,5.8-1.1c2.3,0,4.4,0.4,6.1,1.1c1.8,0.7,3.1,1.8,4.1,3.3c1,1.5,1.5,3.2,1.5,4.9l-4,0.3
		c-0.2-2-0.9-3.5-2.2-4.5s-3.1-1.5-5.5-1.5c-2.5,0-4.3,0.5-5.5,1.4s-1.7,2-1.7,3.3c0,1.1,0.4,2.1,1.2,2.8c0.8,0.7,2.9,1.5,6.2,2.2
		c3.4,0.8,5.7,1.4,6.9,2c1.8,0.8,3.2,1.9,4,3.2c0.9,1.3,1.3,2.9,1.3,4.5c0,1.7-0.5,3.3-1.4,4.7c-1,1.5-2.3,2.6-4.1,3.4
		c-1.8,0.8-3.8,1.2-6,1.2c-2.8,0-5.2-0.4-7.1-1.2c-1.8-0.8-3.4-2.1-4.5-3.7C97.6,25.8,97,23.8,96.9,21.8z"/>
	<path fill="#222F39" d="M127.2,32.4V0h23.4v3.8h-19.1v9.9h17.9v3.8h-17.9v11h19.9v3.8L127.2,32.4z"/>
	<path fill="#CD6215" d="M175.7,28.6v3.8h-21.3c0-0.9,0.1-1.9,0.5-2.7c0.6-1.6,1.5-3,2.6-4.3c1.2-1.4,2.9-3,5.2-4.9
		c3.5-2.9,5.9-5.1,7.1-6.8s1.8-3.3,1.8-4.8c0-1.5-0.6-2.9-1.7-4c-1.1-1.1-2.6-1.6-4.4-1.6c-1.9,0-3.4,0.6-4.6,1.7
		c-1.1,1.1-1.7,2.7-1.7,4.8l-4.1-0.4c0.3-3,1.3-5.3,3.1-6.9s4.3-2.4,7.3-2.4c3.1,0,5.5,0.9,7.3,2.6c1.8,1.7,2.7,3.8,2.7,6.4
		c0,1.3-0.3,2.6-0.8,3.8c-0.5,1.3-1.4,2.6-2.6,3.9s-3.3,3.3-6.1,5.7c-2.4,2-3.9,3.3-4.6,4.1c-0.6,0.7-1.2,1.4-1.7,2.1H175.7z"/>
	<path fill="#CD6215" d="M191.7,32.4v-7.8h-14V21l14.8-21h3.2v21h4.4v3.6h-4.4v7.8H191.7z M191.7,21V6.4L181.5,21H191.7z"/>
	<path fill="#222F39" d="M46,0c-8.9,0-16.1,7.2-16.1,16.1S37.1,32.3,46,32.3s16.1-7.2,16.1-16.1l0,0l0,0C62.2,7.3,54.9,0,46,0z
		 M38.5,26.2c-0.7-0.6-1.4-1.2-2-1.9c-4.4-5.4-3.5-13.4,1.9-17.8c4.5-3.6,10.8-3.7,15.4-0.3c-1,0-1.9,0.3-2.8,0.8
		C51,7,50.9,7,50.8,7c-0.6-0.2-3-0.7-5.4-0.2c-5.8,1.3-9.2,6-9.5,10.5C35.6,21.5,37.6,24.6,38.5,26.2C38.6,26.2,38.6,26.2,38.5,26.2
		L38.5,26.2z M55.8,23.7c-0.1,0.1-0.2,0.1-0.3,0.1c-0.6,0-1.3-0.2-1.9-0.5c-0.1,0-0.1-0.1-0.1-0.2l0-0.8c0-0.1,0-0.2-0.1-0.3
		c-0.7-0.8-3.9-4.2-4.3-4.4c-0.3-0.1-0.9-0.2-1.2-0.2c-0.1,0-0.2-0.1-0.3-0.1c-2.6-2.6-2-4.2-1-5.5c0.1-0.1,0-0.1-0.1-0.1
		c-2.4,0.9-1.8,4-0.8,4.7c0.1,0.1,0,0.2,0,0.3c-2.7,4.5,4.3,3.7,5.9,10.8c-3.6,1.6-7.8,1.5-11.3-0.5c-2-1.9-3.5-4.7-3.5-9
		C36.7,9.7,45.3,6.1,50.3,7.5c0.1,0,0.1,0.1,0.1,0.2c-0.6,0.6-0.7,1.4-0.4,2.1c0,0.1,0,0.2,0.1,0.1c0.2-1.8,1.5-3.7,4.9-3
		c0.1,0,0.1,0.1,0,0.1c-1.7,0.9-1.2,2.3-1.9,3.1c-0.1,0.1-0.1,0.2,0,0.2c0.3,0.3,0.6,0.7,0.9,1.1c0.7,1,2.4,7.5,2.6,8
		c0.1,0.3,0.3,0.6,0.4,0.9c0,0.1,0.1,0.2,0.1,0.3C57,22,56.3,23.1,55.8,23.7L55.8,23.7z"/>
</g>
</svg>
