<svg xmlns="http://www.w3.org/2000/svg" width="16.001" height="17.667" viewBox="0 0 16.001 17.667">
  <path id="icon-profile" d="M13.334,15.834V14.167a2.5,2.5,0,0,0-2.5-2.5H4.167a2.5,2.5,0,0,0-2.5,2.5v1.667a.834.834,0,0,1-1.668,0V14.167A4.172,4.172,0,0,1,4.167,10h6.666A4.174,4.174,0,0,1,15,14.167v1.667a.833.833,0,0,1-1.667,0Zm-10-11.667A4.167,4.167,0,1,1,7.5,8.333,4.171,4.171,0,0,1,3.335,4.167ZM5,4.167a2.5,2.5,0,1,0,2.5-2.5A2.5,2.5,0,0,0,5,4.167Z" transform="translate(0.5 0.5)" fill="#fff" stroke="rgba(0,0,0,0)" stroke-width="1"/>
</svg>
