<svg xmlns="http://www.w3.org/2000/svg" width="17.695" height="19.331" viewBox="0 0 17.695 19.331">
  <path id="icon-notification" d="M7.076,17.991a2.488,2.488,0,0,1-.905-.905.833.833,0,0,1,1.44-.839.834.834,0,0,0,1.444,0,.834.834,0,0,1,1.442.838,2.5,2.5,0,0,1-3.42.905ZM.833,14.167a.832.832,0,0,1-.462-1.526C.382,12.633,2.5,11.058,2.5,5.834a5.834,5.834,0,1,1,11.668,0c0,5.224,2.118,6.8,2.138,6.814a.839.839,0,0,1,.315.936.827.827,0,0,1-.788.583ZM4.168,5.834A12.6,12.6,0,0,1,2.617,12.5H14.051A12.592,12.592,0,0,1,12.5,5.834a4.167,4.167,0,1,0-8.333,0Z" transform="translate(0.517 0.5)" fill="#fff" stroke="rgba(0,0,0,0)" stroke-width="1"/>
</svg>
