<svg xmlns="http://www.w3.org/2000/svg" width="18.685" height="17.001" viewBox="0 0 18.685 17.001">
  <path id="icon-profile" d="M11.842,15.26V13.78a2.224,2.224,0,0,0-2.221-2.22H3.7a2.224,2.224,0,0,0-2.22,2.22v1.48a.74.74,0,0,1-1.48,0V13.78a3.706,3.706,0,0,1,3.7-3.7H9.62a3.707,3.707,0,0,1,3.7,3.7v1.48a.74.74,0,1,1-1.48,0Zm3-5.9A.728.728,0,0,1,14.6,8.8a.75.75,0,0,1,.2-.51c3.045-3.33.15-6.916.03-7.066a.745.745,0,1,1,1.14-.96,6.782,6.782,0,0,1-.075,9.047.768.768,0,0,1-.556.243A.712.712,0,0,1,14.843,9.359ZM2.961,4.9a3.7,3.7,0,1,1,3.7,3.7A3.7,3.7,0,0,1,2.961,4.9Zm1.48,0a2.22,2.22,0,1,0,2.219-2.22A2.221,2.221,0,0,0,4.442,4.9Zm7.576,2.419a.763.763,0,0,1-.045-1.065,2.348,2.348,0,0,0-.015-3,.747.747,0,1,1,1.17-.93,3.833,3.833,0,0,1-.06,4.95.71.71,0,0,1-.542.248A.736.736,0,0,1,12.017,7.319Z" transform="translate(0.5 0.501)" fill="#fff" stroke="rgba(0,0,0,0)" stroke-width="1"/>
</svg>
