<svg id="icon-team" xmlns="http://www.w3.org/2000/svg" width="20.191" height="16" viewBox="0 0 20.191 16">
  <path id="icon-profile" d="M12.8,15.2V13.6a2.4,2.4,0,0,0-2.4-2.4H4a2.4,2.4,0,0,0-2.4,2.4v1.6a.8.8,0,0,1-1.6,0V13.6a4.005,4.005,0,0,1,4-4h6.4a4.007,4.007,0,0,1,4,4v1.6a.8.8,0,0,1-1.6,0ZM3.2,4a4,4,0,1,1,4,4A4,4,0,0,1,3.2,4ZM4.8,4A2.4,2.4,0,1,0,7.2,1.6,2.4,2.4,0,0,0,4.8,4Z" transform="translate(0 0)" fill="#fff"/>
  <path id="Subtraction_19" data-name="Subtraction 19" d="M9.665,12.375a.8.8,0,0,1-.789-.809v-1.2a1.552,1.552,0,0,0-1.517-1.58l-2.966,0-1.644,0a1.355,1.355,0,0,0-.505.1A5,5,0,0,0,.971,8.721H.12l.031-.085L.16,8.616A2.946,2.946,0,0,1,2.747,7.17H7.358a3.153,3.153,0,0,1,3.1,3.2v1.2A.8.8,0,0,1,9.665,12.375ZM5.053,6.4a3.153,3.153,0,0,1-3.1-3.2A3.153,3.153,0,0,1,5.053,0,3.152,3.152,0,0,1,8.147,3.2,3.152,3.152,0,0,1,5.053,6.4Zm0-4.78A1.552,1.552,0,0,0,3.534,3.2,1.552,1.552,0,0,0,5.053,4.779,1.551,1.551,0,0,0,6.569,3.2,1.551,1.551,0,0,0,5.053,1.619Z" transform="translate(9.737 0.001)" fill="#fff"/>
</svg>
